<?xml version="1.0" standalone="no"?>
<!DOCTYPE svg PUBLIC "-//W3C//DTD SVG 20010904//EN"
 "http://www.w3.org/TR/2001/REC-SVG-20010904/DTD/svg10.dtd">
<svg version="1.0" xmlns="http://www.w3.org/2000/svg"
 width="470.000000pt" height="210.000000pt" viewBox="0 0 470.000000 210.000000"
 preserveAspectRatio="xMidYMid meet">

<g transform="translate(0.000000,210.000000) scale(0.100000,-0.100000)"
fill="#000000" stroke="none">
<path d="M640 1613 c0 -23 -59 -274 -69 -292 -4 -8 -14 -17 -22 -20 -9 -3 -8
1 4 13 20 21 23 33 3 17 -10 -8 -16 -9 -21 -1 -3 5 -1 10 4 10 6 0 11 8 10 18
0 10 -3 12 -6 4 -2 -6 -9 -9 -15 -6 -6 4 6 21 28 41 29 26 32 30 9 15 -51 -33
-217 -186 -279 -257 -66 -75 -68 -74 64 -24 41 16 81 29 88 29 7 0 11 4 8 9
-3 5 0 9 7 8 33 -1 58 4 54 11 -3 4 6 8 20 8 29 2 29 7 -15 -196 -29 -135 -26
-130 -112 -164 l-35 -13 30 -7 c74 -18 74 -18 60 -88 -8 -34 -13 -64 -11 -65
1 -1 59 -3 129 -4 69 0 125 -4 124 -8 -4 -15 116 -109 131 -103 12 4 12 7 -3
18 -10 7 -21 11 -26 9 -4 -3 -10 -1 -14 5 -3 5 -1 10 4 10 6 0 11 5 11 11 0 8
-4 8 -15 -1 -8 -6 -19 -8 -26 -4 -8 5 -7 9 5 16 9 5 16 14 16 21 0 8 -3 8 -9
-1 -6 -11 -9 -9 -13 5 -4 13 0 19 11 19 9 0 61 1 117 2 l101 2 17 81 c10 45
16 83 14 85 -2 2 -78 4 -169 5 -90 1 -158 4 -151 6 6 3 12 12 12 21 0 15 -2
15 -10 2 -6 -9 -10 -10 -10 -3 0 6 4 14 8 17 4 2 9 28 10 58 1 29 16 114 33
188 64 287 100 456 103 483 l3 27 -103 0 c-92 0 -104 -2 -104 -17z"/>
<path d="M1479 1407 c-66 -19 -128 -58 -181 -115 -51 -54 -74 -95 -109 -192
-31 -89 -33 -233 -2 -301 28 -62 85 -114 147 -136 76 -27 220 -23 311 8 l70
24 3 81 3 82 -61 -25 c-73 -29 -184 -40 -219 -21 -34 19 -61 58 -68 101 l-6
37 61 0 c84 0 201 24 266 55 123 58 169 184 111 302 -35 70 -97 103 -203 109
-45 2 -96 -1 -123 -9z m145 -159 c50 -71 -22 -138 -164 -154 l-63 -7 7 34 c21
104 174 192 220 127z"/>
<path d="M3932 1391 c-102 -36 -162 -119 -170 -237 -5 -85 8 -130 48 -169 l29
-28 -44 -28 c-24 -15 -51 -39 -60 -53 -21 -32 -22 -99 0 -132 9 -14 15 -26 13
-27 -116 -58 -157 -100 -165 -170 -16 -139 91 -212 307 -210 244 3 375 100
375 279 0 120 -41 155 -215 184 -121 21 -150 32 -150 59 0 33 27 43 118 45
108 3 176 30 231 92 47 54 63 106 60 197 -3 79 -11 70 83 91 22 5 28 14 37 57
6 29 10 53 9 54 -2 1 -104 5 -228 9 -204 5 -230 4 -278 -13z m170 -118 c13
-12 18 -31 18 -75 0 -98 -38 -158 -101 -160 -84 -3 -94 139 -14 219 36 36 69
42 97 16z m-118 -628 c99 -11 130 -68 69 -129 -50 -51 -231 -63 -275 -19 -28
28 -26 78 3 109 24 25 102 55 129 49 8 -2 41 -6 74 -10z"/>
<path d="M1944 1384 c3 -8 10 -147 16 -307 5 -161 12 -320 16 -355 l6 -63 110
3 111 3 84 195 c46 107 95 229 110 270 14 41 28 78 32 82 3 4 5 -119 3 -272
l-3 -280 114 0 113 0 84 178 c46 97 120 254 166 348 45 94 85 181 89 192 6 22
4 22 -97 22 l-103 0 -78 -178 c-42 -97 -92 -218 -110 -268 l-32 -91 3 268 3
269 -114 0 -114 0 -33 -82 c-18 -46 -54 -130 -80 -188 -26 -58 -58 -134 -71
-170 l-24 -65 -3 253 -2 252 -101 0 c-88 0 -100 -2 -95 -16z"/>
<path d="M3040 1394 c0 -4 32 -85 72 -181 64 -156 70 -175 56 -191 -35 -41
-274 -329 -287 -344 -13 -17 -6 -18 105 -18 l119 0 84 110 84 111 12 -28 c6
-15 25 -65 41 -110 l29 -83 111 0 112 0 -80 181 c-43 100 -77 187 -74 193 2 6
68 87 145 180 78 92 144 172 147 177 3 5 -47 9 -113 9 l-119 0 -79 -107 -78
-107 -36 104 -36 105 -107 3 c-60 1 -108 0 -108 -4z"/>
<path d="M830 526 c0 -3 15 -15 33 -27 23 -17 28 -18 18 -6 -14 18 -51 42 -51
33z"/>
<path d="M911 457 c2 -1 13 -9 24 -17 19 -14 19 -14 6 3 -7 9 -18 17 -24 17
-6 0 -8 -1 -6 -3z"/>
<path d="M1020 376 c0 -2 7 -7 16 -10 8 -3 12 -2 9 4 -6 10 -25 14 -25 6z"/>
</g>
</svg>
