<?xml version="1.0" standalone="no"?>
<!DOCTYPE svg PUBLIC "-//W3C//DTD SVG 20010904//EN"
 "http://www.w3.org/TR/2001/REC-SVG-20010904/DTD/svg10.dtd">
<svg version="1.0" xmlns="http://www.w3.org/2000/svg"
 width="647.000000pt" height="79.000000pt" viewBox="0 0 647.000000 79.000000"
 preserveAspectRatio="xMidYMid meet">

<g transform="translate(0.000000,79.000000) scale(0.100000,-0.100000)"
fill="#000000" stroke="none">
<path d="M4555 749 c-46 -26 -60 -82 -29 -113 40 -40 124 -4 124 54 0 50 -52
83 -95 59z"/>
<path d="M5605 749 c-46 -26 -60 -82 -29 -113 40 -40 124 -4 124 54 0 50 -52
83 -95 59z"/>
<path d="M4347 713 c-38 -3 -50 -9 -57 -26 -10 -25 -70 -455 -70 -505 0 -51
37 -82 97 -82 67 0 77 9 68 59 -5 31 -11 41 -26 41 -10 0 -19 6 -19 13 0 6 16
122 35 257 41 284 37 250 28 248 -5 -1 -30 -3 -56 -5z"/>
<path d="M2870 610 l-12 -99 -27 13 c-96 48 -192 7 -243 -104 -28 -61 -37
-204 -15 -246 22 -42 50 -64 90 -71 49 -8 81 2 122 38 l35 31 -6 -32 -7 -31
59 3 59 3 40 292 c46 330 50 303 -41 303 l-42 0 -12 -100z m-54 -162 c26 -12
26 -13 19 -82 -8 -83 -23 -122 -58 -154 -55 -51 -102 -6 -91 88 8 75 31 128
63 145 32 18 34 18 67 3z"/>
<path d="M3907 670 c-145 -25 -234 -168 -225 -359 5 -100 22 -137 82 -179 35
-24 48 -27 126 -27 79 0 91 3 136 30 93 57 144 169 144 312 -1 132 -51 202
-160 223 -29 5 -53 9 -54 9 0 -1 -23 -5 -49 -9z m112 -116 c17 -21 21 -41 21
-97 0 -100 -25 -181 -70 -228 -48 -50 -88 -53 -132 -8 -31 30 -31 30 -26 122
9 157 57 237 144 237 34 0 47 -5 63 -26z"/>
<path d="M116 648 c-3 -7 -19 -119 -36 -248 -18 -129 -34 -247 -37 -262 l-5
-28 164 0 165 0 11 39 c19 62 21 61 -86 61 -54 0 -101 2 -103 5 -3 2 7 93 23
202 37 267 40 243 -32 243 -40 0 -62 -4 -64 -12z"/>
<path d="M617 536 c-99 -27 -167 -129 -167 -251 0 -89 21 -131 80 -162 52 -28
125 -30 193 -7 64 22 72 34 51 77 l-17 36 -38 -20 c-52 -26 -103 -25 -129 3
-36 39 -27 53 44 65 137 23 206 75 206 155 0 86 -108 136 -223 104z m97 -92
c15 -40 -31 -87 -96 -99 -45 -9 -49 4 -18 64 27 54 98 75 114 35z"/>
<path d="M1044 539 c-97 -23 -166 -127 -168 -254 -1 -88 21 -130 84 -162 79
-40 179 -26 243 35 50 47 70 99 75 192 3 77 2 88 -20 119 -43 63 -126 91 -214
70z m73 -85 c46 -13 54 -110 16 -205 -24 -61 -87 -81 -117 -37 -34 48 -8 189
41 228 28 22 29 22 60 14z"/>
<path d="M1625 544 c-5 -1 -22 -5 -37 -8 -15 -4 -43 -22 -63 -41 l-35 -36 0
36 0 36 -52 -3 -53 -3 -27 -190 c-14 -104 -27 -198 -27 -207 -1 -15 8 -18 58
-18 68 0 61 -12 82 140 6 47 20 101 30 122 31 62 88 93 102 55 2 -7 -4 -68
-14 -137 -27 -192 -30 -180 41 -180 33 0 60 4 60 8 0 5 9 73 20 152 25 176 25
212 3 239 -17 21 -67 41 -88 35z"/>
<path d="M1964 539 c-50 -12 -118 -68 -144 -119 -11 -21 -23 -64 -29 -97 -21
-132 31 -222 127 -223 42 0 99 26 113 52 11 20 11 20 25 -1 15 -21 64 -51 82
-51 17 0 41 73 29 90 -9 15 8 175 29 283 5 25 1 29 -38 46 -54 23 -140 32
-194 20z m101 -88 c3 -5 -1 -53 -9 -107 -13 -81 -19 -102 -42 -125 -33 -35
-67 -37 -88 -7 -32 46 -10 166 39 215 33 33 86 45 100 24z"/>
<path d="M3210 541 c-114 -24 -180 -119 -180 -258 0 -84 27 -135 85 -163 113
-54 243 -2 298 120 28 62 30 182 3 227 -35 57 -127 90 -206 74z m80 -101 c39
-39 15 -203 -35 -236 -34 -22 -76 -14 -94 18 -13 23 -14 37 -3 100 14 80 32
114 65 128 34 13 45 12 67 -10z"/>
<path d="M5237 536 c-99 -27 -167 -129 -167 -251 0 -89 21 -131 80 -162 52
-28 125 -30 193 -7 63 21 72 35 52 73 -17 34 -28 37 -65 16 -39 -22 -96 -19
-120 7 -36 39 -27 53 44 65 137 23 206 75 206 155 0 86 -108 136 -223 104z
m97 -92 c15 -40 -31 -87 -96 -99 -45 -9 -49 4 -18 64 27 54 98 75 114 35z"/>
<path d="M6211 539 c-77 -15 -145 -85 -170 -175 -15 -55 -14 -148 3 -189 18
-42 69 -75 114 -75 41 0 98 25 116 52 14 20 14 20 26 -2 10 -19 77 -57 85 -48
1 2 10 18 19 36 13 25 14 37 6 52 -8 16 -6 56 9 161 12 77 21 143 21 145 0 3
-19 13 -42 23 -54 23 -130 31 -187 20z m95 -92 c8 -23 -22 -194 -39 -221 -18
-27 -56 -42 -82 -32 -57 21 -29 204 37 250 27 19 77 21 84 3z"/>
<path d="M2439 500 l-38 -39 6 34 6 35 -57 0 c-65 0 -56 21 -86 -200 -11 -85
-23 -170 -27 -188 l-5 -33 63 3 63 3 16 105 c22 145 55 201 122 204 30 1 33 5
49 59 l17 57 -46 0 c-40 0 -50 -5 -83 -40z"/>
<path d="M5914 506 l-34 -34 0 29 c0 28 -1 29 -54 29 -64 0 -55 21 -86 -205
-11 -82 -23 -165 -26 -183 l-5 -33 63 3 63 3 12 90 c21 152 57 216 124 219 31
1 34 5 50 59 l17 57 -45 0 c-38 0 -50 -5 -79 -34z"/>
<path d="M4495 508 c-2 -13 -14 -93 -25 -178 -11 -85 -23 -170 -26 -188 l-6
-32 61 0 c33 0 61 2 61 4 0 7 49 350 55 384 l6 32 -60 0 c-55 0 -61 -2 -66
-22z"/>
<path d="M4670 520 c0 -6 16 -99 35 -207 19 -108 35 -199 35 -201 0 -1 34 -2
75 0 l76 3 89 200 c50 110 90 203 90 208 0 4 -28 7 -63 7 l-62 0 -55 -154
c-30 -85 -57 -153 -61 -150 -3 2 -9 43 -13 91 -3 48 -9 116 -12 151 l-7 62
-63 0 c-36 0 -64 -4 -64 -10z"/>
<path d="M5546 508 c-3 -13 -14 -93 -26 -178 -11 -85 -23 -170 -27 -188 l-5
-32 60 0 c71 0 61 -23 92 210 11 85 23 167 26 183 l6 27 -61 0 c-55 0 -61 -2
-65 -22z"/>
</g>
</svg>
